# AST/ASF file generated using VICON BodyLanguage
# -----------------------------------------------
:version 1.10
:name VICON
:units
  mass 1.0
  length 0.45
  angle deg
:documentation
   .ast/.asf automatically generated from VICON data using
   VICON BodyBuilder and BodyLanguage model FoxedUp or BRILLIANT.MOD
:root
   order TX TY TZ RX RY RZ
   axis XYZ
   position 0 0 0  
   orientation 0 0 0 
:bonedata
  begin
     id 1 
     name lhipjoint
     direction 0.627457 -0.725269 0.283342 
     length 2.53237 
     axis 0 0 0  XYZ
  end
  begin
     id 2 
     name lfemur
     direction 0.34202 -0.939693 0  
     length 7.32496  
     axis 0 0 20  XYZ
    dof rx ry rz
    limits (-160.0 20.0)
           (-70.0 70.0)
           (-60.0 70.0)
  end
  begin
     id 3 
     name ltibia
     direction 0.34202 -0.939693 0   
     length 7.69674   
     axis 0 0 20   XYZ
    dof rx
    limits (-10.0 170.0)
  end
  begin
     id 4 
     name lfoot
     direction 0.127289 -0.349722 0.928166   
     length 1.8612   
     axis -90 7.62852e-016 20   XYZ
    dof rx rz
    limits (-45.0 90.0)
           (-70.0 20.0)
  end
  begin
     id 5 
     name ltoes
     direction 1.53561e-011 -4.21864e-011 1   
     length 0.925608   
     axis -90 7.62852e-016 20   XYZ
    dof rx
    limits (-90.0 20.0)
  end
  begin
     id 6 
     name rhipjoint
     direction -0.609094 -0.738725 0.288599   
     length 2.48624  
     axis 0 0 0  XYZ 
  end
  begin
     id 7 
     name rfemur
     direction -0.34202 -0.939693 0   
     length 7.44259   
     axis 0 0 -20   XYZ
    dof rx ry rz
    limits (-160.0 20.0)
           (-70.0 70.0)
           (-70.0 60.0)
  end
  begin
     id 8 
     name rtibia
     direction -0.34202 -0.939693 0   
     length 7.7781   
     axis 0 0 -20   XYZ
    dof rx
    limits (-10.0 170.0)
 end
 begin
     id 9 
     name rfoot
     direction -0.107015 -0.294021 0.949789   
     length 2.14741  
     axis -90 -7.62852e-016 -20   XYZ
    dof rx rz
    limits (-45.0 90.0)
           (-20.0 70.0)
  end
  begin
     id 10 
     name rtoes
     direction -1.53497e-011 -4.21924e-011 1   
     length 1.0706   
     axis -90 -7.62852e-016 -20   XYZ
    dof rx
    limits (-90.0 20.0)
  end
  begin
     id 11 
     name lowerback
     direction -0.0142066 0.998112 -0.0597545   
     length 1.86627   
     axis 0 0 0   XYZ
    dof rx ry rz
    limits (-20.0 45.0)
           (-30.0 30.0)
           (-30.0 30.0)
  end
  begin
     id 12 
     name upperback
     direction 0.00547294 0.999744 0.0219437   
     length 1.86272   
     axis 0 0 0   XYZ
    dof rx ry rz
    limits (-20.0 45.0)
           (-30.0 30.0)
           (-30.0 30.0)
  end
  begin
     id 13 
     name thorax
     direction 0.0116162 0.998704 0.0495538   
     length 1.8703   
     axis 0 0 0   XYZ
    dof rx ry rz
    limits (-20.0 45.0)
           (-30.0 30.0)
           (-30.0 30.0)
  end
  begin
     id 14 
     name lowerneck
     direction -0.0106574 0.998739 0.0490586   
     length 1.8074   
     axis 0 0 0   XYZ
    dof rx ry rz
    limits (-20.0 45.0)
           (-30.0 30.0)
           (-30.0 30.0)
  end
  begin
     id 15 
     name upperneck
     direction 0.030527 0.976587 -0.212944   
     length 1.80681   
     axis 0 0 0   XYZ
    dof rx ry rz
    limits (-20.0 45.0)
           (-30.0 30.0)
           (-30.0 30.0)
  end
  begin
     id 16
     name head
     direction 0.00869225 0.997035 -0.0764531  
     length 1.8313  
     axis 0 0 0   XYZ
    dof rx ry rz
    limits (-20.0 45.0)
           (-30.0 30.0)
           (-30.0 30.0)
  end
  begin
     id 17 
     name lclavicle
     direction 0.915958 0.399447 0.0382386  
     length 3.78965  
     axis 0 0 0   XYZ
    dof ry rz
    limits (-20.0 10.0)
           (0.0 20.0)
  end
  begin
     id 18 
     name lhumerus
     direction 1 -4.48967e-011 3.19303e-027   
     length 4.78095   
     axis -180 -30 -90   XYZ
    dof rx ry rz
    limits (-60.0 90.0)
           (-90.0 90.0)
           (-90.0 90.0)
  end
  begin
     id 19
     name lradius
     direction 1 -4.48967e-011 -3.77974e-027   
     length 3.58615   
     axis -180 -30 -90   XYZ
    dof rx
    limits (-10.0 170.0)
  end
  begin
     id 20
     name lwrist
     direction 1 -4.48927e-011 1.2807e-027   
     length 1.79307   
     axis 1.91374e-015 90 90   XYZ
    dof ry
    limits (-180.0 0.0)
 end
  begin
     id 21 
     name lhand
     direction 1 -4.49036e-011 2.5614e-027   
     length 0.659812   
     axis -1.63439e-015 90 90   XYZ
    dof rx rz
    limits (-90.0 90.0)
           (-45.0 45.0)
  end
  begin
     id 22 
     name lfingers
     direction 1 -4.49052e-011 5.1228e-027   
     length 0.531957   
     axis -3.26879e-015 90 90   XYZ
    dof rx
    limits (0.0 90.0)
  end
  begin
     id 23
     name lthumb
     direction 0.707107 -6.35012e-011 0.707107   
     length 0.763787   
     axis -90 45 2.85299e-015   XYZ
    dof rx rz
    limits (-45.0 45.0)
           (-45.0 45.0)
  end
  begin
     id 24 
     name rclavicle
     direction -0.895351 0.435135 0.0948887   
     length 3.70497  
     axis 0 0 0   XYZ 
    dof ry rz
    limits (-10.0 20.0)
           (-20.0 0.0)
  end
  begin
     id 25 
     name rhumerus
     direction -1 -4.48971e-011 2.38946e-027  
     length 4.48913   
     axis -180 30 90   XYZ
    dof rx ry rz
    limits (-90.0 60.0)
           (-90.0 90.0)
           (-90.0 90.0)
  end
  begin
     id 26 
     name rradius
     direction -1 -4.4895e-011 4.38668e-027   
     length 3.7051   
     axis -180 30 90   XYZ
    dof rx
    limits (-10.0 170.0)
  end
  begin
     id 27 
     name rwrist
     direction -1 -4.49007e-011 1.2807e-027   
     length 1.85255   
     axis 1.91374e-015 -90 -90   XYZ
    dof ry
    limits (-180.0 0.0)
  end
  begin
     id 28
     name rhand
     direction -1 -4.48851e-011 2.5614e-027   
     length 0.449136   
     axis -1.63439e-015 -90 -90   XYZ
    dof rx rz
    limits (-90.0 90.0)
           (-45.0 45.0)
  end
  begin
     id 29
     name rfingers
     direction -1 -4.49128e-011 5.1228e-027   
     length 0.362105   
     axis -3.26879e-015 -90 -90   XYZ
    dof rx
    limits (0.0 90.0)
  end
  begin
     id 30
     name rthumb
     direction -0.707107 -6.34851e-011 0.707107   
     length 0.519912   
     axis -90 -45 -2.85299e-015   XYZ
    dof rx rz
    limits (-45.0 45.0)
           (-45.0 45.0)
  end
:hierarchy
  begin
    root lhipjoint rhipjoint lowerback
    lhipjoint lfemur
    lfemur ltibia
    ltibia lfoot
    lfoot ltoes
    rhipjoint rfemur
    rfemur rtibia
    rtibia rfoot
    rfoot rtoes
    lowerback upperback
    upperback thorax
    thorax lowerneck lclavicle rclavicle
    lowerneck upperneck
    upperneck head
    lclavicle lhumerus
    lhumerus lradius
    lradius lwrist
    lwrist lhand lthumb
    lhand lfingers
    rclavicle rhumerus
    rhumerus rradius
    rradius rwrist
    rwrist rhand rthumb
    rhand rfingers
  end

#!OML:ASF I:\Actors\actors\Patient Classification 2\Patient 1\Session 1\actor1.ASF
:FULLY-SPECIFIED
:DEGREES
46
root -0.57325 18.6739 5.61912 3.4564 -3.59143 -0.915877
lowerback -0.129429 1.07205 -1.52747
upperback -3.5996 1.39753 -0.133309
thorax -3.66141 0.742124 0.674804
lowerneck -9.56181 -2.27014 -1.91095
upperneck 24.5583 -3.59606 3.02951
head 9.38342 -1.53789 0.976421
rclavicle 8.44835e-015 9.14409e-015
rhumerus -47.4587 -2.11211 -88.2752
rradius 39.6145
rwrist 20.2589
rhand -6.48485 -30.4278
rfingers 7.12502
rthumb 19.3662 -59.4834
lclavicle 8.44835e-015 9.14409e-015
lhumerus -42.7802 2.91397 89.5809
lradius 35.621
lwrist -10.8638
lhand -5.72745 -23.4541
lfingers 7.12502
lthumb 20.0943 5.52676
rfemur 0 0 0
rtibia 0
rfoot 0 0
rtoes 0
lfemur -4.78161 -5.19633 -13.8484
ltibia 19.8357
lfoot -25.3726 17.7193
ltoes -54.4956
47
root -0.573301 18.6741 5.6195 3.43573 -3.60583 -0.925566
lowerback -0.112043 1.0775 -1.5221
upperback -3.58545 1.405 -0.124925
thorax -3.65681 0.745718 0.68001
lowerneck -9.57129 -2.26632 -1.92397
upperneck 24.5721 -3.59553 3.05773
head 9.39085 -1.53557 0.988341
rclavicle 1.55052e-014 4.96962e-015
rhumerus -47.4669 -2.07515 -88.2834
rradius 39.6519
rwrist 20.2404
rhand -6.40683 -30.5039
rfingers 7.12502
rthumb 19.4412 -59.552
lclavicle 1.55052e-014 4.96962e-015
lhumerus -42.7694 2.86831 89.6139
lradius 35.6335
lwrist -10.8053
lhand -5.73882 -23.3905
lfingers 7.12502
lthumb 20.0834 5.59153
rfemur 0 0 0
rtibia 0
rfoot 0 0
rtoes 0
lfemur -4.7516 -5.20004 -13.8433
ltibia 19.8393
lfoot -25.3848 17.713
ltoes -54.501
48
root -0.573132 18.6743 5.61896 3.4358 -3.60299 -0.923624
lowerback -0.110181 1.08315 -1.52196
upperback -3.58136 1.41254 -0.125482
thorax -3.65378 0.749428 0.679132
lowerneck -9.50908 -2.26336 -1.96889
upperneck 24.5143 -3.59632 3.11875
head 9.36073 -1.53468 1.01748
rclavicle -5.26779e-015 -1.17283e-014
rhumerus -47.4764 -2.10119 -88.2811
rradius 39.6788
rwrist 20.2384
rhand -6.28228 -30.633
rfingers 7.12502
rthumb 19.561 -59.6689
lclavicle -5.26779e-015 -1.17283e-014
lhumerus -42.7564 2.81921 89.6409
lradius 35.6278
lwrist -10.7739
lhand -5.72026 -23.3421
lfingers 7.12502
lthumb 20.1012 5.63803
rfemur 0 0 0
rtibia 0
rfoot 0 0
rtoes 0
lfemur -4.75961 -5.19523 -13.8417
ltibia 19.8483
lfoot -25.3875 17.707
ltoes -54.4902
49
root -0.573059 18.6742 5.61928 3.43526 -3.61093 -0.932988
lowerback -0.107298 1.09051 -1.51813
upperback -3.58007 1.42262 -0.118685
thorax -3.65439 0.754452 0.683615
lowerneck -9.47836 -2.27626 -2.00651
upperneck 24.4927 -3.61176 3.13895
head 9.34887 -1.5437 1.02942
rclavicle -2.5022e-014 4.57205e-015
rhumerus -47.4907 -2.12216 -88.2684
rradius 39.6901
rwrist 20.2599
rhand -6.18639 -30.6962
rfingers 7.12502
rthumb 19.6532 -59.7228
lclavicle -2.5022e-014 4.57205e-015
lhumerus -42.7555 2.7846 89.6705
lradius 35.6348
lwrist -10.7287
lhand -5.68351 -23.3104
lfingers 7.12502
lthumb 20.1366 5.66598
rfemur 0 0 0
rtibia 0
rfoot 0 0
rtoes 0
lfemur -4.76629 -5.14453 -13.8284
ltibia 19.8574
lfoot -25.38 17.7144
ltoes -54.4842
50
root -0.573129 18.6742 5.61998 3.44374 -3.60606 -0.938046
lowerback -0.0985743 1.08768 -1.52736
upperback -3.57792 1.41906 -0.101735
thorax -3.65771 0.753268 0.706169
lowerneck -9.52491 -2.28917 -2.07019
upperneck 24.5265 -3.62466 3.16484
head 9.37174 -1.55195 1.0473
rclavicle -2.30342e-014 2.5842e-015
rhumerus -47.4975 -2.06689 -88.261
rradius 39.7072
rwrist 20.2302
rhand -6.17165 -30.6303
rfingers 7.12502
rthumb 19.6673 -59.6554
lclavicle -2.30342e-014 2.5842e-015
lhumerus -42.7591 2.75627 89.7174
lradius 35.6655
lwrist -10.6785
lhand -5.71029 -23.3297
lfingers 7.12502
lthumb 20.1108 5.64945
rfemur 0 0 0
rtibia 0
rfoot 0 0
rtoes 0
lfemur -4.7833 -5.11018 -13.821
ltibia 19.8679
lfoot -25.3491 17.6902
ltoes -54.5134
51
root -0.572971 18.6745 5.61977 3.45654 -3.59431 -0.929611
lowerback -0.0923454 1.08256 -1.54562
upperback -3.57541 1.41213 -0.0904383
thorax -3.65924 0.750575 0.72812
lowerneck -9.54967 -2.28949 -2.13714
upperneck 24.5534 -3.6246 3.21292
head 9.38811 -1.55238 1.07505
rclavicle 2.68732e-014 -7.95139e-016
rhumerus -47.4878 -2.01981 -88.2595
rradius 39.7143
rwrist 20.1757
rhand -6.24118 -30.6905
rfingers 7.12502
rthumb 19.6005 -59.7225
lclavicle 2.68732e-014 -7.95139e-016
lhumerus -42.7597 2.726 89.759
lradius 35.6999
lwrist -10.6346
lhand -5.7556 -23.3753
lfingers 7.12502
lthumb 20.0673 5.60835
rfemur 0 0 0
rtibia 0
rfoot 0 0
rtoes 0
lfemur -4.80976 -5.08079 -13.8263
ltibia 19.8774
lfoot -25.353 17.6273
ltoes -54.5498
52
root -0.572397 18.6748 5.6198 3.45836 -3.58878 -0.917717
lowerback -0.0878665 1.08266 -1.55958
upperback -3.57342 1.41192 -0.0907932
thorax -3.66007 0.750895 0.735505
lowerneck -9.52078 -2.27982 -2.16389
upperneck 24.5513 -3.61644 3.25492
head 9.38295 -1.54684 1.0953
rclavicle 1.51449e-014 1.15295e-014
rhumerus -47.491 -2.01746 -88.2595
rradius 39.7256
rwrist 20.1796
rhand -6.26834 -30.8906
rfingers 7.12502
rthumb 19.5744 -59.9252
lclavicle 1.51449e-014 1.15295e-014
lhumerus -42.7528 2.70318 89.7741
lradius 35.7039
lwrist -10.5958
lhand -5.7482 -23.3907
lfingers 7.12502
lthumb 20.0744 5.59228
rfemur 0 0 0
rtibia 0
rfoot 0 0
rtoes 0
lfemur -4.8182 -5.01487 -13.8341
ltibia 19.8788
lfoot -25.3365 17.5777
ltoes -54.5698
53
root -0.571907 18.675 5.62008 3.46657 -3.56727 -0.902697
lowerback -0.0935169 1.07037 -1.57695
upperback -3.56599 1.39533 -0.0912359
thorax -3.64919 0.743044 0.745516
lowerneck -9.54336 -2.2727 -2.18432
upperneck 24.5635 -3.61249 3.29466
head 9.39254 -1.54226 1.1127
rclavicle 1.4238e-014 -3.18055e-015
rhumerus -47.4769 -1.99886 -88.2658
rradius 39.725
rwrist 20.2093
rhand -6.23733 -30.8545
rfingers 7.12502
rthumb 19.6042 -59.8861
lclavicle 1.4238e-014 -3.18055e-015
lhumerus -42.7035 2.74864 89.7539
lradius 35.6456
lwrist -10.6176
lhand -5.74714 -23.437
lfingers 7.12502
lthumb 20.0754 5.54587
rfemur 0 0 0
rtibia 0
rfoot 0 0
rtoes 0
lfemur -4.82915 -4.98798 -13.8415
ltibia 19.8717
lfoot -25.2703 17.5502
ltoes -54.5921
54
root -0.57196 18.6752 5.61978 3.47766 -3.55768 -0.88738
lowerback -0.087163 1.06471 -1.59375
upperback -3.55506 1.38749 -0.0891581
thorax -3.64173 0.739586 0.757312
lowerneck -9.62427 -2.28157 -2.20639
upperneck 24.5984 -3.62457 3.3094
head 9.42133 -1.54709 1.11944
rclavicle -1.01877e-015 -9.74045e-015
rhumerus -47.4328 -1.97634 -88.2641
rradius 39.7046
rwrist 20.2148
rhand -6.24016 -30.634
rfingers 7.12502
rthumb 19.6015 -59.6658
lclavicle -1.01877e-015 -9.74045e-015
lhumerus -42.6359 2.81223 89.7272
lradius 35.5891
lwrist -10.6586
lhand -5.72408 -23.4817
lfingers 7.12502
lthumb 20.0976 5.49883
rfemur 0 0 0
rtibia 0
rfoot 0 0
rtoes 0
lfemur -4.84421 -4.93205 -13.846
ltibia 19.8623
lfoot -25.2018 17.5202
ltoes -54.6447
55
root -0.572097 18.6753 5.61998 3.49005 -3.58431 -0.864828
lowerback -0.0799057 1.08824 -1.61463
upperback -3.54686 1.41833 -0.09324
thorax -3.6386 0.755473 0.763748
lowerneck -9.6778 -2.30392 -2.22386
upperneck 24.6135 -3.64966 3.29896
head 9.43784 -1.56067 1.11549
rclavicle -2.60532e-014 1.03368e-014
rhumerus -47.3992 -2.01199 -88.2339
rradius 39.6935
rwrist 20.2368
rhand -6.26563 -30.5449
rfingers 7.12502
rthumb 19.577 -59.5792
lclavicle -2.60532e-014 1.03368e-014
lhumerus -42.602 2.81104 89.7256
lradius 35.5867
lwrist -10.7144
lhand -5.70311 -23.4778
lfingers 7.12502
lthumb 20.1177 5.50062
rfemur 0 0 0
rtibia 0
rfoot 0 0
rtoes 0
lfemur -4.85075 -4.86579 -13.8685
ltibia 19.8545
lfoot -25.1666 17.5403
ltoes -54.6935
56
root -0.571644 18.6753 5.62023 3.48156 -3.6101 -0.86068
lowerback -0.051387 1.11102 -1.60338
upperback -3.54245 1.4482 -0.102911
thorax -3.65037 0.769896 0.745993
lowerneck -9.65964 -2.32061 -2.23979
upperneck 24.5892 -3.6731 3.31415
head 9.42717 -1.57181 1.12097
rclavicle 3.72721e-016 3.57812e-015
rhumerus -47.396 -2.0417 -88.2188
rradius 39.6942
rwrist 20.25
rhand -6.2987 -30.5604
rfingers 7.12502
rthumb 19.5452 -59.598
lclavicle 3.72721e-016 3.57812e-015
lhumerus -42.6041 2.77933 89.7173
lradius 35.6022
lwrist -10.791
lhand -5.65404 -23.4673
lfingers 7.12502
lthumb 20.1649 5.5061
rfemur 0 0 0
rtibia 0
rfoot 0 0
rtoes 0
lfemur -4.82827 -4.93074 -13.8902
ltibia 19.8454
lfoot -25.246 17.6011
ltoes -54.6726
57
root -0.571115 18.675 5.61982 3.44966 -3.62284 -0.87415
lowerback 0.00782928 1.1163 -1.57147
upperback -3.53715 1.45482 -0.104671
thorax -3.67762 0.772296 0.724926
lowerneck -9.63485 -2.31944 -2.25279
upperneck 24.5661 -3.67534 3.34181
head 9.4152 -1.57157 1.13268
rclavicle -8.85834e-015 -5.56597e-015
rhumerus -47.4044 -2.0025 -88.2325
rradius 39.7088
rwrist 20.2028
rhand -6.31803 -30.6204
rfingers 7.12502
rthumb 19.5266 -59.6599
lclavicle -8.85834e-015 -5.56597e-015
lhumerus -42.598 2.75648 89.7093
lradius 35.5934
lwrist -10.7847
lhand -5.56661 -23.4998
lfingers 7.12502
lthumb 20.2489 5.46478
rfemur 0 0 0
rtibia 0
rfoot 0 0
rtoes 0
lfemur -4.78732 -4.9542 -13.8849
ltibia 19.8368
lfoot -25.3021 17.588
ltoes -54.6651
58
root -0.57131 18.6748 5.61951 3.44339 -3.63444 -0.871927
lowerback 0.0322581 1.10837 -1.59335
upperback -3.52589 1.44393 -0.0882489
thorax -3.68052 0.767779 0.754046
lowerneck -9.67998 -2.31502 -2.2943
upperneck 24.5982 -3.66832 3.36892
head 9.43619 -1.56842 1.14948
rclavicle -2.10712e-014 -6.75868e-015
rhumerus -47.389 -1.92926 -88.2383
rradius 39.7164
rwrist 20.1671
rhand -6.31949 -30.6359
rfingers 7.12502
rthumb 19.5252 -59.6755
lclavicle -2.10712e-014 -6.75868e-015
lhumerus -42.5665 2.77592 89.7097
lradius 35.5733
lwrist -10.7734
lhand -5.57825 -23.5692
lfingers 7.12502
lthumb 20.2377 5.39655
rfemur 0 0 0
rtibia 0
rfoot 0 0
rtoes 0
lfemur -4.77355 -4.88538 -13.8766
ltibia 19.8332
lfoot -25.2446 17.5519
ltoes -54.7279
59
root -0.571404 18.6746 5.6189 3.4645 -3.63552 -0.867048
lowerback 0.0338443 1.09645 -1.61734
upperback -3.52308 1.42784 -0.077997
thorax -3.67899 0.76065 0.778556
lowerneck -9.71128 -2.32734 -2.36635
upperneck 24.6334 -3.68513 3.41929
head 9.45753 -1.57688 1.17703
rclavicle -5.09386e-016 8.74653e-015
rhumerus -47.3633 -1.83002 -88.2595
rradius 39.7
rwrist 20.1324
rhand -6.34081 -30.5678
rfingers 7.12502
rthumb 19.5047 -59.6095
lclavicle -5.09386e-016 8.74653e-015
lhumerus -42.5584 2.7945 89.6904
lradius 35.5811
lwrist -10.8363
lhand -5.60326 -23.6147
lfingers 7.12502
lthumb 20.2137 5.35356
rfemur 0 0 0
rtibia 0
rfoot 0 0
rtoes 0
lfemur -4.79297 -4.82373 -13.8674
ltibia 19.8331
lfoot -25.1912 17.5014
ltoes -54.7427
60
root -0.570582 18.6743 5.61805 3.47549 -3.63656 -0.857528
lowerback 0.062344 1.09653 -1.60988
upperback -3.53852 1.42713 -0.0873725
thorax -3.71068 0.760189 0.763961
lowerneck -9.65025 -2.3512 -2.39013
upperneck 24.6204 -3.7162 3.4251
head 9.44298 -1.59385 1.18022
rclavicle -1.36664e-016 -5.1684e-015
rhumerus -47.3674 -1.78692 -88.2682
rradius 39.6677
rwrist 20.1229
rhand -6.37833 -30.56
rfingers 7.12502
rthumb 19.4686 -59.6054
lclavicle -1.36664e-016 -5.1684e-015
lhumerus -42.583 2.69309 89.7088
lradius 35.5998
lwrist -10.8034
lhand -5.56778 -23.5665
lfingers 7.12502
lthumb 20.2478 5.39817
rfemur 0 0 0
rtibia 0
rfoot 0 0
rtoes 0
lfemur -4.80649 -4.80631 -13.8776
ltibia 19.8375
lfoot -25.2241 17.4406
ltoes -54.6873
